<svg xmlns="http://www.w3.org/2000/svg" viewBox="0 0 16 16"><title>LinkedIn</title><path fill="#ffffff" d="M0 1.15C0 .52.53 0 1.18 0h13.64C15.47 0 16 .52 16 1.15v13.7c0 .63-.53 1.15-1.18 1.15H1.18C.53 16 0 15.48 0 14.85V1.15zm4.95 12.24V6.17H2.54v7.22h2.41zM3.75 5.18c.84 0 1.36-.56 1.36-1.25-.02-.71-.52-1.25-1.34-1.25-.82 0-1.36.54-1.36 1.25 0 .69.52 1.25 1.32 1.25h.02zm4.52 8.21V9.36c0-.22.02-.43.08-.59.17-.43.56-.88 1.22-.88.86 0 1.2.66 1.2 1.62v3.88h2.41V9.23c0-2.23-1.19-3.27-2.78-3.27-1.28 0-1.86.7-2.18 1.2h.03v-1H5.84c.03.68 0 7.22 0 7.22h2.43z"/></svg>