<svg xmlns="http://www.w3.org/2000/svg" viewBox="0 0 64 64" role="img">
<title>Twitter</title>
<circle cx="32" cy="32" r="30" fill="#555"/>
<path d="M48.8 22.2c-1.2.5-2.4.9-3.7 1 1.3-.8 2.3-2 2.8-3.5-1.2.7-2.6 1.3-4 1.5-1.2-1.2-2.8-2-4.7-2-3.5 0-6.4 2.9-6.4 6.4 0 .5.1 1 .2 1.5-5.3-.3-10-2.8-13.1-6.7-.6 1-.9 2-.9 3.2 0 2.2 1.1 4.2 2.9 5.3-1.1 0-2.1-.3-2.9-.8v.1c0 3.1 2.2 5.7 5.1 6.3-.5.1-1.1.2-1.7.2-.4 0-.8 0-1.2-.1.8 2.5 3.1 4.4 5.9 4.4-2.2 1.7-5 2.8-8 2.8-.5 0-1 0-1.5-.1 2.9 1.8 6.3 2.9 9.9 2.9 11.9 0 18.4-9.9 18.4-18.4v-.8c1.2-.9 2.3-2 3.1-3.2z" fill="#fff"/>
</svg>